<svg version="1.1" id="Layer_1" xmlns="http://www.w3.org/2000/svg" xmlns:xlink="http://www.w3.org/1999/xlink" x="0px" y="0px"
	 width="100%" viewBox="0 0 864 624" enable-background="new 0 0 864 624" xml:space="preserve">
<path fill="#000000" opacity="1.000000" stroke="none" 
	d="
M277.011108,451.993225 
	C276.950104,426.164856 276.886353,400.835175 276.837036,375.505524 
	C276.833466,373.674805 276.781799,371.824005 277.015961,370.016693 
	C277.848419,363.591125 279.935638,361.717682 286.524902,361.716919 
	C314.187592,361.713806 341.850311,361.775269 369.513000,361.808411 
	C371.845764,361.811218 374.180176,361.828308 376.511108,361.754486 
	C383.160278,361.543884 384.731537,360.115173 384.743713,353.360321 
	C384.792755,326.197815 384.716217,299.035065 384.692749,271.872406 
	C384.689728,268.373230 384.693451,264.873413 384.752228,261.374908 
	C384.817017,257.519226 386.642975,255.052856 390.574280,254.484787 
	C392.871155,254.152908 395.193268,253.800720 397.504822,253.795151 
	C425.818207,253.726913 454.131714,253.721634 482.445190,253.699081 
	C491.708466,253.691696 492.770050,252.666138 492.799469,243.388260 
	C492.888153,215.392914 492.782349,187.395615 493.095062,159.402908 
	C493.241302,146.313339 492.784729,145.136032 508.669647,145.342789 
	C529.161499,145.609512 549.657349,145.597061 570.151611,145.631073 
	C578.147156,145.644333 586.142761,145.426895 594.138733,145.369797 
	C602.079712,145.313095 604.334778,147.498245 604.338623,155.317307 
	C604.353516,185.646332 604.348877,215.975372 604.324219,246.304382 
	C604.317566,254.407867 602.461609,256.312134 594.293457,256.321686 
	C565.630920,256.355225 536.968262,256.303406 508.305695,256.334290 
	C505.746582,256.337067 502.941620,255.710556 500.848785,258.072357 
	C501.402252,260.446838 503.368286,261.617096 504.848846,263.103088 
	C536.016785,294.385895 567.228088,325.625519 598.379211,356.925018 
	C599.796875,358.349396 602.533875,359.482971 601.598877,362.024506 
	C600.507629,364.990967 597.496643,364.321777 595.059753,364.323853 
	C564.230835,364.350006 533.401855,364.359589 502.572906,364.347351 
	C494.208740,364.344025 492.734253,362.933838 492.716980,354.418640 
	C492.658142,325.422852 492.697937,296.426880 492.654236,267.431061 
	C492.651123,265.373566 493.234833,263.126984 491.676056,261.275970 
	C489.438232,261.626343 488.524384,263.401306 487.284760,264.639404 
	C419.959900,331.880798 352.674286,399.161469 285.323181,466.376495 
	C283.601990,468.094208 282.200500,471.685608 279.170105,470.270721 
	C276.553131,469.048828 277.187042,465.585632 277.069244,462.987946 
	C276.910858,459.495605 277.018494,455.991150 277.011108,451.993225 
M464.496307,259.321625 
	C443.520782,259.281311 422.545227,259.232422 401.569702,259.204407 
	C391.813477,259.191376 390.947021,260.055237 390.975616,269.618164 
	C391.051758,295.088226 391.126587,320.558289 391.233887,346.028229 
	C391.239807,347.435303 390.629639,349.062408 392.622284,350.438629 
	C421.996979,320.174866 451.417236,289.864136 480.668121,259.727905 
	C476.664062,258.440063 471.008636,259.705994 464.496307,259.321625 
M528.991882,299.508148 
	C519.119202,289.607574 509.246521,279.706970 498.562103,268.992340 
	C498.442017,271.682068 498.346100,272.832336 498.345886,273.982574 
	C498.340790,299.612244 498.328979,325.241913 498.361389,350.871552 
	C498.370087,357.764893 499.456665,358.812012 506.628510,358.821167 
	C531.925293,358.853394 557.222107,358.847809 582.518860,358.812225 
	C583.898865,358.810272 585.509888,359.399963 587.395264,356.952972 
	C568.139282,338.016235 548.815186,319.012573 528.991882,299.508148 
z"/>
<path fill="#000000" opacity="1.000000" stroke="none" 
	d="
M346.091522,148.648056 
	C372.354218,155.828415 387.316925,176.566833 387.894531,201.298050 
	C388.657166,233.951263 363.121490,257.059906 334.311188,257.459412 
	C309.430542,257.804443 291.367981,246.265427 281.670898,223.455460 
	C268.314667,192.038208 286.389496,153.998581 322.985931,147.663879 
	C330.684052,146.331375 338.189850,146.512070 346.091522,148.648056 
M288.229065,225.221741 
	C288.395569,225.510239 288.558716,225.800690 288.729034,226.086929 
	C301.581635,247.690613 325.876190,257.000244 349.329254,249.309372 
	C370.001282,242.530502 384.149475,218.797653 381.633118,195.121445 
	C379.651337,176.475433 364.852997,159.766296 345.713348,154.563614 
	C326.102478,149.232834 304.312927,156.332169 292.781647,172.648209 
	C281.346985,188.827560 279.651825,206.328354 288.229065,225.221741 
z"/>
<path fill="#000000" opacity="1.000000" stroke="none" 
	d="
M509.926147,409.355896 
	C518.526062,440.482697 503.989288,469.646362 475.405945,479.275177 
	C441.767822,490.606812 406.640442,467.943207 402.511932,432.612061 
	C398.851959,401.290466 421.801056,375.814575 450.738983,371.565002 
	C477.531281,367.630463 501.579071,384.996521 509.926147,409.355896 
M428.026947,386.531189 
	C423.760101,389.547089 420.407227,393.417969 417.370148,397.635040 
	C405.325531,414.359253 404.514893,434.877594 415.313812,452.449371 
	C425.211670,468.554993 445.633514,479.633575 465.537811,475.856873 
	C491.535645,470.924011 509.820160,446.776093 506.600586,420.573425 
	C502.095337,383.907288 459.117706,363.622589 428.026947,386.531189 
z"/>
<path fill="#000000" opacity="1.000000" stroke="none" 
	d="
M179.084808,362.615601 
	C188.008453,360.356445 195.337219,364.299866 197.978531,372.477722 
	C200.139465,379.168274 195.445724,388.240906 188.546722,390.708679 
	C181.523895,393.220764 173.616074,389.614166 170.837509,382.631897 
	C167.591110,374.474030 170.749420,366.452820 179.084808,362.615601 
z"/>
<path fill="#000000" opacity="1.000000" stroke="none" 
	d="
M708.747681,251.490112 
	C702.105225,258.017761 695.903870,259.215424 689.747009,255.408417 
	C684.069153,251.897629 681.272705,244.810974 683.160156,238.524475 
	C684.930420,232.628128 689.192627,229.421890 695.029846,228.499878 
	C700.461426,227.641907 705.422668,229.058624 708.597229,233.865250 
	C712.282593,239.445160 712.627136,245.332520 708.747681,251.490112 
z"/>
<path fill="#000000" opacity="1.000000" stroke="none" 
	d="
M56.992481,32.193352 
	C50.233631,30.567053 47.665062,27.829124 47.726212,22.729944 
	C47.782715,18.018276 50.557503,14.433418 54.681297,13.744411 
	C60.194466,12.823267 63.687431,14.616377 65.467453,19.281473 
	C67.295914,24.073521 65.931938,28.243776 61.550484,30.727671 
	C60.290428,31.442011 58.786835,31.726765 56.992481,32.193352 
M53.422611,20.847090 
	C51.999805,23.388685 52.681976,25.438063 55.239727,26.517067 
	C57.542664,27.488579 59.400845,26.421833 60.644878,24.309364 
	C61.468361,22.911034 61.742561,21.534870 60.427383,20.261503 
	C58.215019,18.119484 56.014893,18.486261 53.422611,20.847090 
z"/>
<path fill="#000000" opacity="1.000000" stroke="none" 
	d="
M79.957710,21.335526 
	C81.483330,15.614682 85.206238,13.528587 90.459808,13.690396 
	C94.999168,13.830208 97.233223,16.665766 98.374825,20.660482 
	C99.727066,25.392269 97.351440,29.587425 92.285889,31.525780 
	C87.814545,33.236759 82.917839,31.341118 81.001755,27.023636 
	C80.269135,25.372833 79.635643,23.624144 79.957710,21.335526 
M93.519356,24.071974 
	C93.710777,20.648499 92.235252,18.595274 88.671501,18.985741 
	C86.848511,19.185476 85.291679,20.403521 84.975342,22.478886 
	C84.608269,24.887014 86.275620,26.089441 88.057785,27.010700 
	C90.634293,28.342583 91.978714,26.501350 93.519356,24.071974 
z"/>
<path fill="#000000" opacity="1.000000" stroke="none" 
	d="
M16.824448,27.753788 
	C14.492493,20.509527 16.866554,14.795781 22.279499,13.780309 
	C26.748138,12.941987 30.376068,15.012784 32.580769,19.746117 
	C34.389404,23.629114 34.187691,27.215853 30.596970,30.032242 
	C26.862524,32.961365 22.982487,33.058987 19.139069,30.207458 
	C18.350481,29.622387 17.727095,28.814642 16.824448,27.753788 
M22.800280,19.335062 
	C20.901430,20.926113 18.439756,22.423630 20.578890,25.361107 
	C21.786661,27.019629 23.439981,28.107533 25.729118,26.948709 
	C27.871630,25.864107 29.298864,24.340313 28.641611,21.851509 
	C27.947411,19.222811 26.231491,17.971867 22.800280,19.335062 
z"/>
</svg>