<svg version="1.1" id="Layer_1" xmlns="http://www.w3.org/2000/svg" xmlns:xlink="http://www.w3.org/1999/xlink" x="0px" y="0px"
	 width="100%" viewBox="0 0 463 412" enable-background="new 0 0 463 412" xml:space="preserve">
<path fill="#222222" opacity="1.000000" stroke="none" 
	d="
M235.000000,413.000000 
	C156.688889,413.000000 78.877777,413.000000 1.033333,413.000000 
	C1.033333,275.728119 1.033333,138.456207 1.033333,1.092147 
	C155.227783,1.092147 309.455658,1.092147 463.841736,1.092147 
	C463.841736,138.333191 463.841736,275.666565 463.841736,413.000000 
	C387.789520,413.000000 311.644745,413.000000 235.000000,413.000000 
M199.767273,154.725983 
	C199.767273,187.091599 199.767273,219.457214 199.767273,251.847412 
	C233.011414,251.847412 265.694183,251.847412 299.144287,251.847412 
	C298.049286,250.690933 297.424927,249.999252 296.766937,249.341171 
	C265.584991,218.154984 234.401901,186.969910 203.203857,155.799805 
	C202.525314,155.121857 201.671844,154.618988 200.556427,153.390533 
	C200.774643,152.965607 200.992844,152.540665 202.110580,152.270355 
	C234.374985,152.270355 266.639374,152.270355 299.017578,152.270355 
	C299.017578,118.861031 299.017578,85.972839 299.017578,52.994705 
	C265.846832,52.994705 232.958420,52.994705 199.847198,52.994705 
	C199.791672,54.069229 199.713974,54.872936 199.713791,55.676659 
	C199.707138,86.667206 199.702225,117.657761 199.728500,148.648285 
	C199.729462,149.778381 200.045700,150.908203 199.251114,152.114609 
	C166.304810,152.114609 133.358505,152.114609 100.261429,152.114609 
	C100.261429,185.447586 100.261429,218.241592 100.261429,251.035583 
	C100.649284,251.288666 101.037148,251.541733 101.425003,251.794815 
	C102.514641,250.341553 103.446671,248.730988 104.717041,247.458099 
	C134.846359,217.269363 164.997940,187.102768 195.216888,157.003876 
	C196.584763,155.641434 198.621704,154.950745 199.767273,154.725983 
M177.261383,262.116882 
	C169.664490,262.060242 161.848740,260.813324 154.510330,262.162537 
	C129.053604,266.843018 112.370354,291.838074 116.022102,318.546326 
	C119.355934,342.929382 142.974289,362.139069 167.679001,360.560883 
	C192.531036,358.973236 212.692383,340.164856 214.990372,316.424438 
	C217.439896,291.118591 202.498016,269.259216 177.261383,262.116882 
M395.774292,132.770004 
	C390.691711,128.459518 385.045410,127.577942 380.286041,130.351776 
	C375.856201,132.933563 373.160919,138.706238 374.353882,143.561127 
	C375.649109,148.832108 378.856934,152.309067 384.363983,153.365845 
	C389.209045,154.295624 394.252136,152.296432 396.891724,148.140564 
	C400.081055,143.119171 399.831482,138.136261 395.774292,132.770004 
z"/>
<path fill="#FFFFFF" opacity="1.000000" stroke="none" 
	d="
M200.215012,152.038162 
	C200.045700,150.908203 199.729462,149.778381 199.728500,148.648285 
	C199.702225,117.657761 199.707138,86.667206 199.713791,55.676659 
	C199.713974,54.872936 199.791672,54.069229 199.847198,52.994705 
	C232.958420,52.994705 265.846832,52.994705 299.017578,52.994705 
	C299.017578,85.972839 299.017578,118.861031 299.017578,152.270355 
	C266.639374,152.270355 234.374985,152.270355 201.416260,152.116501 
	C200.552963,151.987808 200.383987,152.012985 200.215012,152.038162 
z"/>
<path fill="#E3E3E3" opacity="1.000000" stroke="none" 
	d="
M199.733063,152.076385 
	C200.383987,152.012985 200.552963,151.987808 200.966492,152.039185 
	C200.992844,152.540665 200.774643,152.965607 200.584183,153.727325 
	C200.611938,154.064102 200.347015,153.947159 200.347015,153.947174 
	C198.621704,154.950745 196.584763,155.641434 195.216888,157.003876 
	C164.997940,187.102768 134.846359,217.269363 104.717041,247.458099 
	C103.446671,248.730988 102.514641,250.341553 101.425003,251.794815 
	C101.037148,251.541733 100.649284,251.288666 100.261429,251.035583 
	C100.261429,218.241592 100.261429,185.447586 100.261429,152.114609 
	C133.358505,152.114609 166.304810,152.114609 199.733063,152.076385 
M117.502396,154.994217 
	C112.545105,154.994217 107.587814,154.994217 102.694687,154.994217 
	C102.694687,185.212143 102.694687,214.908035 102.694687,244.142822 
	C132.352997,214.467194 162.091934,184.710892 191.791260,154.994217 
	C167.656769,154.994217 143.079468,154.994217 117.502396,154.994217 
z"/>
<path fill="#E7E7E7" opacity="1.000000" stroke="none" 
	d="
M177.654846,262.248291 
	C202.498016,269.259216 217.439896,291.118591 214.990372,316.424438 
	C212.692383,340.164856 192.531036,358.973236 167.679001,360.560883 
	C142.974289,362.139069 119.355934,342.929382 116.022102,318.546326 
	C112.370354,291.838074 129.053604,266.843018 154.510330,262.162537 
	C161.848740,260.813324 169.664490,262.060242 177.654846,262.248291 
M118.872871,302.623016 
	C118.947159,308.570892 118.202316,314.665863 119.239540,320.440796 
	C123.414268,343.684357 146.681854,360.464600 170.272781,357.781525 
	C194.765915,354.995819 213.640808,333.640015 212.751724,309.719208 
	C211.825424,284.796875 193.486328,265.651672 168.386688,263.404114 
	C145.451187,261.350342 124.036339,277.976837 118.872871,302.623016 
z"/>
<path fill="#F5F5F5" opacity="1.000000" stroke="none" 
	d="
M200.057144,154.336578 
	C200.347015,153.947159 200.611938,154.064102 200.755951,154.049271 
	C201.671844,154.618988 202.525314,155.121857 203.203857,155.799805 
	C234.401901,186.969910 265.584991,218.154984 296.766937,249.341171 
	C297.424927,249.999252 298.049286,250.690933 299.144287,251.847412 
	C265.694183,251.847412 233.011414,251.847412 199.767273,251.847412 
	C199.767273,219.457214 199.767273,187.091599 200.057144,154.336578 
M270.499634,249.678238 
	C277.643921,249.678238 284.788208,249.678238 291.882721,249.678238 
	C261.685455,219.487778 231.957123,189.766144 202.372238,160.187927 
	C202.372238,189.548645 202.372238,219.389816 202.372238,249.678223 
	C224.932800,249.678223 247.216263,249.678223 270.499634,249.678238 
z"/>
<path fill="#FAFAFA" opacity="1.000000" stroke="none" 
	d="
M396.025116,133.056519 
	C399.831482,138.136261 400.081055,143.119171 396.891724,148.140564 
	C394.252136,152.296432 389.209045,154.295624 384.363983,153.365845 
	C378.856934,152.309067 375.649109,148.832108 374.353882,143.561127 
	C373.160919,138.706238 375.856201,132.933563 380.286041,130.351776 
	C385.045410,127.577942 390.691711,128.459518 396.025116,133.056519 
z"/>
<path fill="#242424" opacity="1.000000" stroke="none" 
	d="
M118.002274,154.994217 
	C143.079468,154.994217 167.656769,154.994217 191.791260,154.994217 
	C162.091934,184.710892 132.352997,214.467194 102.694687,244.142822 
	C102.694687,214.908035 102.694687,185.212143 102.694687,154.994217 
	C107.587814,154.994217 112.545105,154.994217 118.002274,154.994217 
z"/>
<path fill="#232323" opacity="1.000000" stroke="none" 
	d="
M118.921249,302.197266 
	C124.036339,277.976837 145.451187,261.350342 168.386688,263.404114 
	C193.486328,265.651672 211.825424,284.796875 212.751724,309.719208 
	C213.640808,333.640015 194.765915,354.995819 170.272781,357.781525 
	C146.681854,360.464600 123.414268,343.684357 119.239540,320.440796 
	C118.202316,314.665863 118.947159,308.570892 118.921249,302.197266 
z"/>
<path fill="#252525" opacity="1.000000" stroke="none" 
	d="
M269.999695,249.678223 
	C247.216263,249.678223 224.932800,249.678223 202.372238,249.678223 
	C202.372238,219.389816 202.372238,189.548645 202.372238,160.187927 
	C231.957123,189.766144 261.685455,219.487778 291.882721,249.678238 
	C284.788208,249.678238 277.643921,249.678238 269.999695,249.678223 
z"/>
</svg>