<svg version="1.1" id="Layer_1" xmlns="http://www.w3.org/2000/svg" xmlns:xlink="http://www.w3.org/1999/xlink" x="0px" y="0px"
	 width="100%" viewBox="0 0 638 398" enable-background="new 0 0 638 398" xml:space="preserve">
<path fill="#000000" opacity="1.000000" stroke="none" 
	d="
M378.000000,399.000000 
	C252.030258,399.000000 126.560532,399.000000 1.045398,399.000000 
	C1.045398,266.395599 1.045398,133.791199 1.045398,1.093389 
	C213.553085,1.093389 426.106232,1.093389 638.829712,1.093389 
	C638.829712,133.666489 638.829712,266.333221 638.829712,399.000000 
	C552.124512,399.000000 465.312256,399.000000 378.000000,399.000000 
M410.915741,193.073776 
	C410.919922,165.480972 410.946075,137.888168 410.921844,110.295395 
	C410.900116,85.532120 410.822968,60.768906 410.910614,35.482685 
	C410.606445,35.382038 410.302246,35.281391 409.074371,35.012779 
	C356.364319,35.012779 303.654266,35.012779 251.070755,35.012779 
	C251.070755,88.693451 251.070755,141.745605 251.070755,195.167480 
	C252.415924,195.167480 253.549438,195.167496 254.682953,195.167496 
	C305.297791,195.167496 355.912659,195.169144 406.527496,195.157028 
	C407.683624,195.156754 408.839661,195.000717 410.554138,194.990936 
	C410.626160,194.660995 410.698212,194.331039 410.915741,193.073776 
M94.805367,195.110992 
	C93.535591,195.193237 92.265816,195.275497 90.912064,195.363174 
	C90.912064,248.572723 90.912064,301.462158 90.912064,352.880371 
	C143.202209,300.590271 196.084915,247.707565 248.681503,195.110992 
	C198.275452,195.110992 147.010178,195.110992 94.805367,195.110992 
M546.459167,157.764053 
	C537.995911,159.874268 532.926697,165.446716 531.327942,173.783997 
	C529.869019,181.392563 532.520630,187.971008 538.567688,192.828384 
	C545.890686,198.710724 556.184998,198.598541 563.481689,192.888412 
	C570.215576,187.618729 572.897949,177.821548 569.760193,169.956711 
	C566.151245,160.910553 557.578125,156.171021 546.459167,157.764053 
z"/>
<path fill="#FFFFFF" opacity="1.000000" stroke="none" 
	d="
M409.995758,194.917328 
	C408.839661,195.000717 407.683624,195.156754 406.527496,195.157028 
	C355.912659,195.169144 305.297791,195.167496 254.682953,195.167496 
	C253.549438,195.167496 252.415924,195.167480 251.070755,195.167480 
	C251.070755,141.745605 251.070755,88.693451 251.070755,35.012779 
	C303.654266,35.012779 356.364319,35.012779 409.613220,35.278084 
	C410.295624,35.781040 410.501678,35.935131 410.770264,36.005665 
	C410.822968,60.768906 410.900116,85.532120 410.921844,110.295395 
	C410.946075,137.888168 410.919922,165.480972 410.659424,193.637115 
	C410.188782,194.394760 410.053009,194.633728 409.995758,194.917328 
z"/>
<path fill="#E9E9E9" opacity="1.000000" stroke="none" 
	d="
M95.275146,195.110992 
	C147.010178,195.110992 198.275452,195.110992 248.681503,195.110992 
	C196.084915,247.707565 143.202209,300.590271 90.912064,352.880371 
	C90.912064,301.462158 90.912064,248.572723 90.912064,195.363174 
	C92.265816,195.275497 93.535591,195.193237 95.275146,195.110992 
M124.912277,315.412323 
	C163.229874,277.097443 201.547485,238.782532 240.721130,199.611633 
	C191.302383,199.611633 143.209045,199.611633 95.036484,199.611633 
	C95.036484,248.045914 95.036484,296.234528 95.036484,345.302795 
	C105.211174,335.123047 114.811737,325.517700 124.912277,315.412323 
z"/>
<path fill="#FCFCFC" opacity="1.000000" stroke="none" 
	d="
M546.853394,157.637482 
	C557.578125,156.171021 566.151245,160.910553 569.760193,169.956711 
	C572.897949,177.821548 570.215576,187.618729 563.481689,192.888412 
	C556.184998,198.598541 545.890686,198.710724 538.567688,192.828384 
	C532.520630,187.971008 529.869019,181.392563 531.327942,173.783997 
	C532.926697,165.446716 537.995911,159.874268 546.853394,157.637482 
z"/>
<path fill="#E9E9E9" opacity="1.000000" stroke="none" 
	d="
M410.840424,35.744175 
	C410.501678,35.935131 410.295624,35.781040 410.075073,35.362068 
	C410.302246,35.281391 410.606445,35.382038 410.840424,35.744175 
z"/>
<path fill="#E9E9E9" opacity="1.000000" stroke="none" 
	d="
M410.274963,194.954132 
	C410.053009,194.633728 410.188782,194.394760 410.586670,194.100769 
	C410.698212,194.331039 410.626160,194.660995 410.274963,194.954132 
z"/>
<path fill="#020202" opacity="1.000000" stroke="none" 
	d="
M124.662292,315.662354 
	C114.811737,325.517700 105.211174,335.123047 95.036484,345.302795 
	C95.036484,296.234528 95.036484,248.045914 95.036484,199.611633 
	C143.209045,199.611633 191.302383,199.611633 240.721130,199.611633 
	C201.547485,238.782532 163.229874,277.097443 124.662292,315.662354 
z"/>
</svg>