<svg version="1.1" id="Layer_1" xmlns="http://www.w3.org/2000/svg" xmlns:xlink="http://www.w3.org/1999/xlink" x="0px" y="0px"
	 width="100%" viewBox="0 0 656 416" enable-background="new 0 0 656 416" xml:space="preserve">
<path fill="#000000" opacity="1.000000" stroke="none" 
	d="
M160.936615,247.339142 
	C162.338348,243.625488 165.237869,244.764969 167.521591,244.759369 
	C198.011154,244.684586 228.500946,244.709793 258.990692,244.709015 
	C265.917908,244.708832 265.929901,244.706924 265.934723,237.896057 
	C265.956085,207.739716 265.956512,177.583344 265.995758,147.427032 
	C266.005829,139.687912 266.058136,139.674103 273.697876,139.673828 
	C304.187622,139.672745 334.678040,139.579010 365.166382,139.788361 
	C370.132782,139.822464 371.792664,138.507660 371.756287,133.361740 
	C371.539734,102.706924 371.650299,72.049797 371.650970,41.393444 
	C371.651031,39.411606 371.650970,37.429768 371.650970,35.787743 
	C373.469421,34.153011 375.213654,34.630009 376.821594,34.628716 
	C408.477570,34.603222 440.134277,34.713875 471.788910,34.507618 
	C476.734650,34.475388 478.036499,36.171741 478.017578,40.827251 
	C477.890320,72.149345 477.912079,103.472610 478.061127,134.794662 
	C478.082977,139.385696 476.587250,140.692123 471.950287,140.606506 
	C459.133240,140.369797 446.304810,140.861938 433.481232,140.842270 
	C416.658234,140.816498 399.835541,140.578812 383.012817,140.426941 
	C380.350464,140.402908 377.691803,140.386139 374.232330,141.427475 
	C408.689758,175.922165 442.831268,210.100571 476.847137,244.153214 
	C475.389099,246.746719 473.533691,246.080887 471.999969,246.083313 
	C440.510712,246.133240 409.021027,246.066162 377.532379,246.219696 
	C372.946442,246.242050 371.541382,244.691010 371.567169,240.134735 
	C371.738647,209.812561 371.662933,179.488968 371.667511,149.165848 
	C371.667816,147.210999 371.667572,145.256149 371.667572,143.301300 
	C371.233276,143.059494 370.799011,142.817688 370.364716,142.575882 
	C301.110382,211.797440 231.856033,281.019012 162.601685,350.240570 
	C162.022888,350.072021 161.444077,349.903442 160.865265,349.734894 
	C160.865265,315.757477 160.865265,281.780060 160.936615,247.339142 
M270.157959,163.500275 
	C270.157959,187.544037 270.157959,211.587799 270.157959,234.877914 
	C300.776276,204.290726 331.368805,173.729309 361.692261,143.436676 
	C362.218109,143.616211 361.913300,143.421326 361.608215,143.420883 
	C332.464081,143.378067 303.319794,143.376617 274.175842,143.282318 
	C271.067322,143.272263 270.084320,144.646729 270.136230,147.512497 
	C270.226715,152.507019 270.159180,157.504425 270.157959,163.500275 
M402.500000,241.986176 
	C424.199829,241.986176 445.899689,241.986176 468.175659,241.986176 
	C464.184082,236.210068 378.910980,151.297409 375.596619,149.562378 
	C375.498138,150.057297 375.320831,150.532990 375.320587,151.008774 
	C375.306519,179.814407 375.349457,208.620178 375.251831,237.425491 
	C375.239746,240.995316 376.709778,242.076706 380.021271,242.020508 
	C387.178986,241.899048 394.340210,241.984863 402.500000,241.986176 
z"/>
<path fill="#000000" opacity="1.000000" stroke="none" 
	d="
M361.674622,353.845886 
	C329.751312,370.529541 293.256989,353.594666 284.428589,320.953644 
	C275.957184,289.632660 297.452606,258.359070 329.628845,254.518082 
	C359.321869,250.973511 385.529724,272.972687 388.417725,300.283783 
	C390.898102,323.740112 381.751343,341.286682 361.674622,353.845886 
M371.477417,273.025513 
	C354.316589,256.668884 332.036896,253.177124 312.289154,263.792297 
	C294.725250,273.233582 283.015625,294.698669 287.262848,316.959198 
	C291.157043,337.369598 310.827423,355.314392 331.825562,356.649414 
	C352.395416,357.957184 371.716278,346.832214 380.306976,328.733795 
	C389.154327,310.094666 385.941925,288.940979 371.477417,273.025513 
z"/>
<path fill="#000000" opacity="1.000000" stroke="none" 
	d="
M259.968811,115.861206 
	C248.165985,135.369247 226.819504,144.972687 204.250778,141.152496 
	C183.742142,137.681015 166.198761,120.433266 161.921585,99.536613 
	C156.134323,71.262444 173.954224,43.538918 202.132141,36.978523 
	C230.439301,30.388044 258.789032,47.786968 265.731323,76.094048 
	C269.131256,89.957169 267.165039,103.124023 259.968811,115.861206 
M262.717468,97.287346 
	C263.873505,91.861763 263.790375,86.496544 262.917969,80.972916 
	C258.833099,55.108997 234.807571,36.729908 209.087341,39.567467 
	C181.297897,42.633308 161.476974,67.505081 165.253860,94.935410 
	C167.916306,114.271927 178.476318,127.888878 196.478485,134.868469 
	C225.390884,146.078079 255.136917,129.268585 262.717468,97.287346 
z"/>
<path fill="#000000" opacity="1.000000" stroke="none" 
	d="
M83.205002,258.930237 
	C82.191544,266.163055 78.450989,270.743896 71.649529,272.021576 
	C66.171059,273.050720 61.520481,271.020325 58.241005,266.328247 
	C54.956772,261.629425 54.760727,256.693634 57.540802,251.778015 
	C60.228119,247.026382 64.640869,244.639008 69.959236,244.891663 
	C75.687874,245.163773 80.050751,248.058701 82.104881,253.686142 
	C82.666985,255.226059 82.854454,256.902740 83.205002,258.930237 
z"/>
<path fill="#000000" opacity="1.000000" stroke="none" 
	d="
M581.110535,121.176804 
	C586.287476,130.096802 580.072815,139.193329 573.965027,141.175873 
	C566.237366,143.684189 558.216370,139.421341 556.127563,131.474380 
	C554.556091,125.495132 557.672852,118.817261 563.334290,116.033623 
	C569.492004,113.005989 575.824524,114.737045 581.110535,121.176804 
z"/>
</svg>